<svg width="180" height="138" viewBox="0 0 180 138" fill="none" xmlns="http://www.w3.org/2000/svg">
<path d="M159.448 46.8798C151.11 52.5026 141.416 55.7988 133.273 61.6155C125.129 67.6261 118.731 77.7084 121.833 87.4029C123.772 93.9951 129.589 98.4546 132.497 104.659C136.181 112.802 134.048 123.079 127.844 129.671C121.639 136.069 111.945 138.784 103.22 137.233C94.3006 135.682 86.545 130.059 81.31 122.885C77.8199 118.038 75.4933 112.415 72.0032 107.567C68.7071 102.72 63.8598 98.2607 57.8492 97.2913C46.4097 95.7402 36.5213 107.955 24.8879 107.18C17.5201 106.598 11.3156 100.2 9.76448 93.0257C8.21336 85.8518 10.7339 78.0962 15.5812 72.4733C20.4284 66.8505 27.2146 63.1666 34.3885 61.2277C39.2358 59.8705 44.2769 59.0949 49.1242 57.3499C53.9714 55.6049 58.4309 52.6965 60.9515 48.2371C66.7682 36.9914 56.492 22.8374 60.9515 11.204C63.4721 4.41788 71.0338 0.152296 78.2077 0.346186C85.3817 0.540076 92.3617 4.41788 96.8212 10.0407C99.5356 13.3368 103.026 26.9091 106.322 28.0725C110.2 29.2358 122.802 16.633 126.292 14.3063C134.242 9.26513 143.355 5.38733 152.662 5.969C161.968 6.74456 171.275 13.1429 173.02 22.2558C174.959 31.7564 167.785 41.257 159.448 46.8798Z" fill="#F4F5F7"/>
<path d="M17.3262 15.8572C17.3262 16.6328 16.5506 17.2144 15.7751 17.2144H13.6423V19.3472C13.6423 20.1228 12.8667 20.7045 12.0912 20.7045C11.3156 20.7045 10.7339 20.1228 10.7339 19.1533V17.0205H8.60113C7.82557 17.0205 7.2439 16.245 7.2439 15.4694C7.2439 14.6939 7.82557 14.1122 8.79502 14.1122H10.9278V11.9794C10.9278 11.2038 11.7034 10.6222 12.4789 10.6222C13.2545 10.6222 13.8362 11.3977 13.8362 12.1733V14.3061H15.969C16.7445 14.3061 17.3262 15.0816 17.3262 15.8572Z" fill="#EBECF0"/>
<path d="M70.8399 131.609C70.8399 131.028 71.4216 130.446 72.0033 130.446H73.7483V128.701C73.7483 128.119 74.3299 127.538 74.9116 127.538C75.4933 127.538 76.0749 128.119 76.0749 128.701V130.446H77.82C78.4016 130.446 78.9833 131.028 78.9833 131.609C78.9833 132.191 78.4016 132.773 77.82 132.773H76.0749V134.518C76.0749 135.099 75.4933 135.681 74.9116 135.681C74.3299 135.681 73.7483 135.099 73.7483 134.518V132.773H72.0033C71.4216 132.773 70.8399 132.385 70.8399 131.609Z" fill="#EBECF0"/>
<path d="M156.345 19.735H158.478V21.8678C158.478 22.6434 159.06 23.2251 159.835 23.419C160.611 23.419 161.193 22.8373 161.387 22.0617V19.9289H163.519C164.295 19.9289 164.877 19.3473 165.07 18.5717C165.07 17.7961 164.489 17.2145 163.713 17.0206H161.58V14.8878C161.58 14.1122 160.999 13.5306 160.223 13.3367C159.448 13.3367 158.866 13.9183 158.672 14.6939V16.8267H156.539C155.764 16.8267 155.182 17.4084 154.988 18.1839C154.988 18.9595 155.57 19.735 156.345 19.735Z" fill="#A5ADBA"/>
<path d="M3.9478 109.7L4.72336 111.639C5.11114 112.415 5.8867 112.608 6.66226 112.415C7.43782 112.027 7.8256 111.251 7.43782 110.476L6.66226 108.537L8.60116 107.761C9.37672 107.373 9.57061 106.598 9.37672 105.822C8.98894 105.047 8.21338 104.853 7.43782 105.047L5.49892 105.822L4.72336 103.883C4.33558 103.108 3.56002 102.914 2.78446 103.108C2.00889 103.496 1.815 104.271 2.00889 105.047L2.78446 106.986L0.845554 107.761C0.0699933 108.149 -0.123897 108.924 0.0699933 109.7C0.457774 110.476 1.23333 110.863 2.00889 110.476L3.9478 109.7Z" fill="#A5ADBA"/>
<path d="M178.061 119.782H174.183C173.02 119.782 172.244 120.558 172.244 121.721C172.244 122.885 173.02 123.66 174.183 123.66H178.061C179.224 123.66 180 122.885 180 121.721C180 120.558 179.031 119.782 178.061 119.782Z" fill="#A5ADBA"/>
<path d="M9.57059 119.782H3.56C2.39665 119.782 1.62109 120.558 1.62109 121.721C1.62109 122.885 2.39665 123.66 3.56 123.66H9.57059C10.7339 123.66 11.5095 122.885 11.5095 121.721C11.5095 120.558 10.54 119.782 9.57059 119.782Z" fill="#A5ADBA"/>
<path d="M91.7802 101.169L94.1069 114.16H69.4828L71.8095 101.169H91.7802Z" fill="white"/>
<path d="M105.158 121.721H59.0126C59.0126 119.588 59.7882 117.843 61.1454 116.486C62.5027 115.129 64.4416 114.353 66.3805 114.353H97.4029C101.862 114.159 105.158 117.455 105.158 121.721Z" fill="white"/>
<path d="M135.405 28.4603V96.3219C135.405 96.7097 135.405 97.0974 135.211 97.6791C135.018 98.0669 135.018 98.4547 134.824 98.8424C134.63 99.2302 134.242 99.618 134.048 100.006C133.854 100.394 133.854 100.2 133.854 100.2L133.66 100.394C133.466 100.394 133.466 100.587 133.272 100.587C133.079 100.781 132.885 100.975 132.497 100.975C132.303 100.975 132.109 101.169 132.109 101.169C131.915 101.169 131.915 101.169 131.721 101.363C131.527 101.363 131.527 101.363 131.334 101.363C131.14 101.363 130.752 101.363 130.364 101.363H33.613C33.2252 101.363 32.8374 101.363 32.6435 101.169C32.2557 101.169 32.0618 100.975 31.6741 100.781C31.2863 100.587 31.0924 100.394 30.8985 100.394C30.7046 100.2 30.3168 100.006 30.1229 99.8119C29.1535 98.8424 28.7657 97.6791 28.7657 96.3219V28.4603C28.7657 24.9703 31.6741 22.0619 35.1641 22.0619H129.007C132.691 21.8681 135.405 24.7764 135.405 28.4603Z" fill="white"/>
<path d="M135.405 88.76V96.3217C135.405 96.7095 135.405 97.0973 135.211 97.679C135.017 98.0667 135.017 98.4545 134.824 98.8423C134.63 99.2301 134.242 99.6179 134.048 100.006C133.854 100.393 133.854 100.2 133.854 100.2L133.66 100.393C133.466 100.393 133.466 100.587 133.272 100.587C133.079 100.781 132.885 100.975 132.497 100.975C132.303 100.975 132.109 101.169 132.109 101.169C131.915 101.169 131.915 101.169 131.721 101.363C131.527 101.363 131.527 101.363 131.334 101.363C131.14 101.363 130.752 101.363 130.558 101.363H33.8068C33.419 101.363 33.0312 101.363 32.8373 101.363C32.4496 101.363 32.2557 101.169 31.8679 100.975C31.4801 100.781 31.2862 100.587 31.0923 100.587C30.8984 100.393 30.5107 100.2 30.3168 100.006C29.3473 99.0362 28.9595 97.8728 28.9595 96.5156V88.9539H135.405V88.76Z" fill="white"/>
<path fill-rule="evenodd" clip-rule="evenodd" d="M53.5839 35.8897H110.588C111.751 35.8897 112.526 35.1142 112.333 34.1447C112.333 33.1753 111.557 32.3997 110.588 32.3997H53.5839C52.6144 32.3997 51.8389 33.1753 51.8389 34.1447C51.8389 35.1142 52.6144 35.8897 53.5839 35.8897ZM53.5838 44.8082H110.587C111.751 44.8082 112.526 44.0327 112.332 43.0632C112.332 42.0938 111.557 41.3182 110.587 41.3182H53.5838C52.6143 41.3182 51.8388 42.0938 51.8388 43.0632C51.8388 44.0327 52.6143 44.8082 53.5838 44.8082ZM110.587 62.7788H53.5838C52.6143 62.7788 51.8388 62.0032 51.8388 61.0338C51.8388 60.0643 52.6143 59.2888 53.5838 59.2888H110.587C111.557 59.2888 112.332 60.0643 112.332 61.0338C112.526 62.0032 111.751 62.7788 110.587 62.7788ZM53.5838 71.5033H110.587C111.751 71.5033 112.526 70.7277 112.332 69.7582C112.332 68.7888 111.557 68.0132 110.587 68.0132H53.5838C52.6143 68.0132 51.8388 68.7888 51.8388 69.7582C51.8388 70.7277 52.6143 71.5033 53.5838 71.5033ZM53.5838 80.4224H110.587C111.751 80.4224 112.526 79.6468 112.332 78.6774C112.332 77.7079 111.557 76.9324 110.587 76.9324H53.5838C52.6143 76.9324 51.8388 77.7079 51.8388 78.6774C51.8388 79.6468 52.6143 80.4224 53.5838 80.4224ZM110.587 53.8596H53.5838C52.6143 53.8596 51.8388 53.0841 51.8388 52.1146C51.8388 51.1452 52.6143 50.3696 53.5838 50.3696H110.587C111.557 50.3696 112.332 51.1452 112.332 52.1146C112.526 53.0841 111.751 53.8596 110.587 53.8596Z" fill="#EBECF0"/>
<path d="M44.4709 23.2252V16.6329C44.4709 13.5307 46.9915 11.204 49.8998 11.204H114.271C117.374 11.204 119.7 13.7246 119.7 16.6329V23.2252H44.4709Z" fill="white"/>
<path d="M164.489 119.783H149.963H135.438C143.969 115.129 159.312 105.97 159.312 95.5C159.312 80.9582 151.692 68.9833 137.344 68.0139V28.4603C137.344 23.8069 133.66 20.123 129.007 20.123H121.639V16.633C121.639 12.5613 118.343 9.26514 114.271 9.26514H49.8997C45.828 9.26514 42.5319 12.5613 42.5319 16.633V20.123H35.1641C30.5107 20.123 26.8268 23.8069 26.8268 28.4603V96.3218C26.8268 100.2 29.929 103.302 33.8068 103.302H69.6765L67.7376 112.221H66.5743C61.9209 112.221 58.237 115.517 57.2676 119.783H22.5612C21.3979 119.783 20.6223 120.558 20.6223 121.721C20.6223 122.885 21.3979 123.66 22.5612 123.66H164.489C165.652 123.66 166.428 122.885 166.428 121.721C166.428 120.558 165.652 119.783 164.489 119.783ZM106.903 119.783C105.934 115.517 102.25 112.221 97.5967 112.221H95.8517L94.1067 103.302C94.4944 103.302 117.424 103.302 117.036 103.302C140.812 104.625 149.898 111.812 135.438 119.783H106.903ZM39.8174 86.8212V33.1136H42.5319V86.8212H39.8174ZM46.4097 25.1641H117.955V74.2183C114.077 77.5145 119.169 81.7801 117.424 86.6273C102.494 86.6273 63.472 86.6273 46.4097 86.6273V25.1641ZM124.354 70.1466C123.384 70.5344 122.609 70.9222 121.639 71.5039V33.1136H124.354V70.1466ZM133.466 28.4603V67.82C131.721 68.0139 129.976 68.2077 128.231 68.7894V31.1747C128.231 30.0114 127.456 29.2358 126.292 29.2358H121.639V24.0008H129.007C131.527 23.8069 133.466 25.9397 133.466 28.4603ZM46.4097 16.633C46.4097 14.6941 47.9608 13.1429 49.8997 13.1429H114.271C116.21 13.1429 117.761 14.6941 117.761 16.633V21.2863H46.4097V16.633ZM35.1641 23.8069H42.5319V29.0419H38.0724C36.9091 29.0419 36.1335 29.8175 36.1335 30.9808V86.6273H30.8985V28.4603C30.7046 25.9397 32.6435 23.8069 35.1641 23.8069ZM30.7046 96.3218V90.699H116.455C115.873 93.4135 116.873 96.5157 117.261 99.4241C83.136 99.4241 71.8093 99.4241 33.8068 99.4241C32.0618 99.4241 30.7046 98.0668 30.7046 96.3218ZM73.3604 103.302H90.035L91.78 112.221H71.8093L73.3604 103.302ZM66.5743 116.099H97.5967C99.9234 116.099 102.056 117.65 102.832 119.783H61.3392C62.1148 117.65 64.0537 116.099 66.5743 116.099Z" fill="#97A0AF"/>
<path d="M81.4234 97.1035C82.5466 97.1035 83.6697 96.1408 83.6697 94.8572C83.6697 93.7341 82.707 92.6109 81.4234 92.6109C80.1398 92.6109 79.1772 93.5736 79.1772 94.8572C79.1772 96.1408 80.1398 97.1035 81.4234 97.1035Z" fill="#97A0AF"/>
<path d="M112.041 15.3423C111.034 15.3423 110.17 16.2063 110.17 17.2142C110.17 18.2222 111.034 19.0861 112.041 19.0861C113.049 19.0861 113.913 18.2222 113.913 17.2142C114.057 16.2063 113.193 15.3423 112.041 15.3423Z" fill="#97A0AF"/>
<path d="M104.538 15.3423C103.53 15.3423 102.666 16.2063 102.666 17.2142C102.666 18.2222 103.53 19.0861 104.538 19.0861C105.546 19.0861 106.41 18.2222 106.41 17.2142C106.554 16.2063 105.69 15.3423 104.538 15.3423Z" fill="#97A0AF"/>
<path d="M97.0346 15.3423C96.0267 15.3423 95.1627 16.2063 95.1627 17.2142C95.1627 18.2222 96.0267 19.0861 97.0346 19.0861C98.0426 19.0861 98.9065 18.2222 98.9065 17.2142C99.0505 16.2063 98.1865 15.3423 97.0346 15.3423Z" fill="#97A0AF"/>
<path d="M166.428 91.8908C166.428 107.317 153.748 119.785 138.322 119.785C122.896 119.785 110.428 107.106 110.428 91.6795C110.428 76.2531 123.107 63.7852 138.533 63.7852C153.96 63.7852 166.428 76.4644 166.428 91.8908Z" fill="white"/>
<circle cx="138.428" cy="91.7853" r="22" fill="#CC3746"/>
<circle cx="138.428" cy="91.785" r="14.6456" stroke="white" stroke-width="4"/>
<path fill-rule="evenodd" clip-rule="evenodd" d="M125.129 81.7904L153.742 98.3104C153.218 99.551 152.548 100.715 151.753 101.78L123.113 85.2453C123.647 84.0089 124.326 82.8501 125.129 81.7904Z" fill="white"/>
</svg>
