<svg width="318" height="32" viewBox="0 0 318 32" fill="none" xmlns="http://www.w3.org/2000/svg">
<path d="M38.8548 19.3868H45.9904V21.2666H36.6221V4.77048H38.8548V19.3945V19.3868Z" fill="#58B78E"/>
<path d="M50.8702 5.94439C50.8702 6.14388 50.8318 6.32803 50.7474 6.5045C50.663 6.68097 50.5556 6.83442 50.4252 6.96485C50.287 7.10296 50.1336 7.20271 49.9571 7.27943C49.7807 7.35616 49.5888 7.39452 49.3894 7.39452C49.1899 7.39452 49.0057 7.35616 48.8292 7.27943C48.6528 7.20271 48.4993 7.09529 48.3689 6.96485C48.2308 6.83442 48.131 6.67329 48.0543 6.5045C47.9776 6.32803 47.9392 6.14388 47.9392 5.94439C47.9392 5.74491 47.9776 5.55309 48.0543 5.37662C48.131 5.20015 48.2385 5.03902 48.3689 4.90092C48.4993 4.77048 48.6604 4.66306 48.8292 4.58634C49.0057 4.50961 49.1899 4.47125 49.3894 4.47125C49.5888 4.47125 49.7807 4.50961 49.9571 4.58634C50.1336 4.66306 50.287 4.77048 50.4252 4.90092C50.5556 5.03902 50.6707 5.19248 50.7474 5.37662C50.8241 5.56076 50.8702 5.74491 50.8702 5.94439ZM50.4098 9.60424V21.2666H48.3612V9.60424H50.4098Z" fill="#58B78E"/>
<path d="M54.0313 21.2666V9.60424H55.2512C55.5428 9.60424 55.727 9.75002 55.8037 10.0339L55.9648 11.2999C56.4712 10.7398 57.039 10.2871 57.6605 9.94184C58.2896 9.59657 59.0108 9.4201 59.8318 9.4201C60.4686 9.4201 61.0287 9.52752 61.5198 9.73468C62.0108 9.94951 62.4175 10.2487 62.7397 10.6324C63.0697 11.0237 63.3152 11.484 63.484 12.0288C63.6528 12.5736 63.7372 13.1797 63.7372 13.8395V21.2666H61.6886V13.8395C61.6886 12.9572 61.4891 12.2743 61.0824 11.7833C60.6758 11.2922 60.062 11.0544 59.2333 11.0544C58.6272 11.0544 58.0594 11.2001 57.5377 11.4917C57.0083 11.7833 56.5249 12.1822 56.0799 12.681V21.2666H54.0313Z" fill="#58B78E"/>
<path d="M71.4482 9.4201C72.1464 9.4201 72.7909 9.53519 73.3817 9.77304C73.9725 10.0109 74.4865 10.3485 74.9162 10.7858C75.3459 11.2308 75.6835 11.7756 75.9213 12.4201C76.1669 13.0723 76.2819 13.8088 76.2819 14.6375C76.2819 14.9597 76.2512 15.1746 76.1822 15.282C76.1131 15.3894 75.9827 15.4431 75.7909 15.4431H68.0338C68.0492 16.1797 68.1489 16.8242 68.3331 17.3689C68.5172 17.9137 68.7704 18.3664 69.0927 18.7347C69.4149 19.103 69.7986 19.3715 70.2436 19.5556C70.6886 19.7398 71.1873 19.8242 71.7397 19.8242C72.2538 19.8242 72.6988 19.7628 73.0671 19.6477C73.4431 19.5326 73.7576 19.4022 74.0262 19.2641C74.2947 19.126 74.5172 18.9955 74.7014 18.8805C74.8778 18.7654 75.039 18.704 75.1694 18.704C75.3382 18.704 75.4686 18.7654 75.5607 18.8958L76.1362 19.6477C75.883 19.9546 75.5761 20.2232 75.2231 20.4457C74.8702 20.6759 74.4942 20.86 74.0876 21.0058C73.6809 21.1516 73.2666 21.259 72.8369 21.3357C72.4073 21.4048 71.9776 21.4431 71.5556 21.4431C70.75 21.4431 70.0057 21.305 69.3305 21.0365C68.6477 20.7679 68.0645 20.3613 67.5658 19.8395C67.0671 19.3101 66.6835 18.6656 66.4073 17.8907C66.131 17.1158 65.9929 16.2257 65.9929 15.2206C65.9929 14.4073 66.1157 13.6477 66.3689 12.9418C66.6144 12.236 66.975 11.6221 67.4431 11.1081C67.9111 10.5863 68.4865 10.1797 69.1617 9.88813C69.8369 9.59657 70.5965 9.44312 71.4405 9.44312L71.4482 9.4201ZM71.4942 10.9316C70.5044 10.9316 69.7218 11.2155 69.1541 11.7909C68.5863 12.3664 68.2333 13.1567 68.0952 14.1695H74.4405C74.4405 13.6938 74.3715 13.2564 74.241 12.8651C74.1106 12.4661 73.9188 12.1285 73.6656 11.837C73.4124 11.5454 73.1055 11.3229 72.7372 11.1695C72.3689 11.016 71.9546 10.9316 71.4865 10.9316H71.4942Z" fill="#58B78E"/>
<path d="M77.3715 9.60424H78.9827C79.1515 9.60424 79.2896 9.65028 79.397 9.73468C79.5044 9.81908 79.5735 9.91882 79.6195 10.0339L81.8523 17.5377C81.9137 17.814 81.9674 18.0825 82.0287 18.3357C82.0824 18.5966 82.1285 18.8498 82.1669 19.1106C82.2282 18.8498 82.2973 18.5889 82.374 18.3357C82.4507 18.0825 82.5275 17.814 82.6195 17.5377L85.0824 9.98787C85.1208 9.87278 85.1899 9.77304 85.2819 9.69631C85.374 9.61959 85.4968 9.58122 85.6426 9.58122H86.5326C86.686 9.58122 86.8088 9.61959 86.9162 9.69631C87.0159 9.77304 87.085 9.87278 87.1234 9.98787L89.5326 17.5377C89.617 17.8063 89.6937 18.0748 89.7551 18.3357C89.8165 18.5966 89.8855 18.8574 89.9469 19.1106C89.9853 18.8574 90.0313 18.5889 90.1004 18.3127C90.1617 18.0365 90.2231 17.7756 90.2998 17.5377L92.5786 10.0339C92.617 9.91115 92.686 9.8114 92.7934 9.727C92.9009 9.6426 93.0313 9.60424 93.1771 9.60424H94.7193L90.9443 21.2666H89.3177C89.1183 21.2666 88.9801 21.1362 88.9034 20.8753L86.3254 12.9649C86.264 12.7884 86.2103 12.6119 86.172 12.4278C86.1336 12.2513 86.0952 12.0672 86.0569 11.8907C86.0185 12.0672 85.9801 12.2513 85.9418 12.4354C85.9034 12.6196 85.8497 12.8037 85.7883 12.9802L83.172 20.8753C83.0876 21.1362 82.9264 21.2666 82.6963 21.2666H81.1541L77.3791 9.60424H77.3715Z" fill="#58B78E"/>
<path d="M99.2691 5.94439C99.2691 6.14388 99.2308 6.32803 99.1464 6.5045C99.0697 6.68097 98.9546 6.83442 98.8241 6.96485C98.686 7.10296 98.5326 7.20271 98.3561 7.27943C98.1796 7.35616 97.9878 7.39452 97.7883 7.39452C97.5888 7.39452 97.4047 7.35616 97.2282 7.27943C97.0518 7.20271 96.8983 7.09529 96.7679 6.96485C96.6298 6.83442 96.53 6.67329 96.4533 6.5045C96.3766 6.32803 96.3382 6.14388 96.3382 5.94439C96.3382 5.74491 96.3766 5.55309 96.4533 5.37662C96.53 5.20015 96.6374 5.03902 96.7679 4.90092C96.8983 4.77048 97.0594 4.66306 97.2282 4.58634C97.397 4.50961 97.5888 4.47125 97.7883 4.47125C97.9878 4.47125 98.172 4.50961 98.3561 4.58634C98.5326 4.66306 98.686 4.77048 98.8241 4.90092C98.9546 5.03902 99.0697 5.19248 99.1464 5.37662C99.2231 5.56076 99.2691 5.74491 99.2691 5.94439ZM98.8088 9.60424V21.2666H96.7602V9.60424H98.8088Z" fill="#58B78E"/>
<path d="M110.563 10.4789C110.563 10.6247 110.533 10.7628 110.487 10.9009C110.433 11.039 110.364 11.1541 110.279 11.2615L103.972 19.6631H110.341V21.2666H101.556V20.415C101.556 20.3152 101.579 20.2001 101.632 20.062C101.678 19.9316 101.755 19.8012 101.847 19.6784L108.192 11.2155H101.916V9.60424H110.571V10.4789H110.563Z" fill="#58B78E"/>
<path d="M117.683 9.4201C118.382 9.4201 119.026 9.53519 119.617 9.77304C120.208 10.0109 120.722 10.3485 121.151 10.7858C121.581 11.2308 121.919 11.7756 122.157 12.4201C122.402 13.0723 122.517 13.8088 122.517 14.6375C122.517 14.9597 122.487 15.1746 122.417 15.282C122.348 15.3894 122.218 15.4431 122.026 15.4431H114.269C114.285 16.1797 114.384 16.8242 114.568 17.3689C114.753 17.9137 115.006 18.3664 115.328 18.7347C115.65 19.103 116.034 19.3715 116.479 19.5556C116.924 19.7398 117.423 19.8242 117.975 19.8242C118.489 19.8242 118.934 19.7628 119.302 19.6477C119.678 19.5326 119.993 19.4022 120.261 19.2641C120.53 19.126 120.753 18.9955 120.937 18.8805C121.113 18.7654 121.274 18.704 121.405 18.704C121.574 18.704 121.704 18.7654 121.796 18.8958L122.371 19.6477C122.118 19.9546 121.811 20.2232 121.458 20.4457C121.105 20.6759 120.73 20.86 120.323 21.0058C119.916 21.1516 119.502 21.259 119.072 21.3357C118.643 21.4048 118.213 21.4431 117.791 21.4431C116.985 21.4431 116.241 21.305 115.566 21.0365C114.883 20.7679 114.3 20.3613 113.801 19.8395C113.302 19.3101 112.919 18.6656 112.643 17.8907C112.366 17.1158 112.228 16.2257 112.228 15.2206C112.228 14.4073 112.351 13.6477 112.604 12.9418C112.85 12.236 113.21 11.6221 113.678 11.1081C114.146 10.5863 114.722 10.1797 115.397 9.88813C116.072 9.59657 116.832 9.44312 117.676 9.44312L117.683 9.4201ZM117.73 10.9316C116.74 10.9316 115.957 11.2155 115.389 11.7909C114.822 12.3664 114.469 13.1567 114.331 14.1695H120.676C120.676 13.6938 120.607 13.2564 120.476 12.8651C120.346 12.4661 120.154 12.1285 119.901 11.837C119.648 11.5454 119.341 11.3229 118.972 11.1695C118.604 11.016 118.19 10.9316 117.722 10.9316H117.73Z" fill="#58B78E"/>
<path d="M0.890625 0.0748291V26.8907H27.7065V0.0748291H0.890625ZM12.9443 6.03647H15.6528V15.3817H12.9443V6.03647ZM21.4763 20.9367H7.1208V6.03647H9.82924V18.2283H21.4763V20.9367ZM21.4763 15.3817H18.7679V6.03647H21.4763V15.3817Z" fill="#58B78E"/>
<path d="M109.742 27.8267C109.65 27.6426 109.604 27.4431 109.612 27.2436C109.612 26.906 109.735 26.5838 109.972 26.3459C110.364 25.9393 110.978 25.8472 111.476 26.1158C111.553 26.1618 111.66 26.1541 111.722 26.0851L112.021 25.7935C112.09 25.7244 112.09 25.617 112.021 25.5556C112.013 25.548 112.006 25.5403 111.99 25.5326C111.676 25.3331 111.3 25.2334 110.878 25.2334C110.272 25.2334 109.781 25.4329 109.389 25.8242C109.006 26.2155 108.806 26.6835 108.806 27.2436C108.806 27.658 108.906 28.0186 109.113 28.3408C109.159 28.4175 109.267 28.4482 109.351 28.3945C109.359 28.3945 109.374 28.3792 109.382 28.3715L109.704 28.0569C109.765 27.9955 109.781 27.9035 109.742 27.8267Z" fill="#58B78E"/>
<path d="M112.62 26.1541C112.566 26.0774 112.458 26.0544 112.382 26.1081C112.374 26.1081 112.366 26.1234 112.359 26.1311L112.044 26.438C111.983 26.4994 111.967 26.5915 112.006 26.6682C112.098 26.8447 112.144 27.0441 112.136 27.2436C112.136 27.5812 112.013 27.9111 111.768 28.149C111.538 28.3945 111.215 28.5326 110.878 28.525C110.671 28.525 110.456 28.4789 110.272 28.3792C110.195 28.3331 110.095 28.3485 110.026 28.4099L109.727 28.7091C109.658 28.7782 109.658 28.8856 109.727 28.947C109.735 28.9546 109.75 28.9623 109.758 28.97C110.08 29.1618 110.448 29.2615 110.878 29.2615C111.484 29.2615 111.975 29.0697 112.359 28.6784C112.75 28.2871 112.949 27.8191 112.949 27.2513C112.949 26.837 112.842 26.4764 112.627 26.1618" fill="#58B78E"/>
<path d="M106.228 26.7756C106.151 26.6989 106.021 26.6989 105.944 26.7756L105.607 27.1055C105.53 27.1822 105.53 27.305 105.607 27.3817L107.44 29.1695C107.517 29.2462 107.648 29.2462 107.724 29.1695L108.062 28.8395C108.139 28.7628 108.139 28.64 108.062 28.5633L106.228 26.7756Z" fill="#58B78E"/>
<path d="M103.735 27.5735C103.543 27.2743 103.451 26.9367 103.451 26.5454C103.451 26.0007 103.635 25.548 104.003 25.1874C104.648 24.5582 105.66 24.4585 106.42 24.9418C106.497 24.9955 106.604 24.9802 106.673 24.9188L107.011 24.5889C107.08 24.5198 107.08 24.4201 107.011 24.351C107.011 24.351 106.995 24.3434 106.995 24.3357C106.527 23.9981 105.983 23.8293 105.361 23.8293C104.594 23.8293 103.942 24.0978 103.397 24.6273C102.852 25.1567 102.584 25.8012 102.584 26.5608C102.584 27.1592 102.753 27.6886 103.09 28.1413C103.144 28.2104 103.251 28.2334 103.336 28.1797C103.336 28.1797 103.351 28.172 103.351 28.1643L103.704 27.8191C103.773 27.7577 103.788 27.6579 103.735 27.5735Z" fill="#58B78E"/>
<path d="M107.348 24.9265L107.003 25.2641C106.934 25.3331 106.926 25.4329 106.972 25.5096C107.172 25.8089 107.272 26.1618 107.272 26.5531C107.272 26.6912 107.256 26.8293 107.226 26.9674C107.21 27.0365 107.226 27.0979 107.279 27.1439L107.686 27.5429C107.755 27.6119 107.863 27.6119 107.932 27.5429C107.947 27.5275 107.962 27.5045 107.97 27.4815C108.077 27.1823 108.131 26.86 108.131 26.5454C108.131 25.9393 107.955 25.4099 107.602 24.9418C107.548 24.8651 107.441 24.8498 107.364 24.9035C107.364 24.9112 107.348 24.9188 107.348 24.9265Z" fill="#58B78E"/>
<path d="M106.006 28.4406C105.96 28.3945 105.883 28.3715 105.814 28.3868C105.66 28.4252 105.507 28.4329 105.346 28.4329C104.939 28.4329 104.586 28.3255 104.279 28.126C104.203 28.0723 104.095 28.0876 104.026 28.149L103.681 28.4866C103.612 28.5556 103.612 28.6554 103.681 28.7244C103.681 28.7244 103.696 28.7398 103.704 28.7398C104.164 29.0697 104.709 29.2232 105.331 29.2232C105.668 29.2232 105.998 29.1695 106.313 29.0697C106.405 29.039 106.451 28.9469 106.42 28.8549C106.42 28.8319 106.397 28.8088 106.374 28.7858L105.998 28.4252L106.006 28.4406Z" fill="#58B78E"/>
<path d="M116.126 25.6477L116.095 25.9776C116.08 26.1157 116.034 26.1771 115.949 26.1771C115.919 26.1771 115.888 26.1771 115.857 26.1541C115.696 26.0851 115.527 26.0544 115.351 26.0544C115.082 26.0544 114.86 26.1464 114.691 26.3306C114.522 26.5147 114.438 26.7449 114.438 27.0365V28.8856C114.438 28.97 114.415 29.0313 114.369 29.0774C114.323 29.1234 114.261 29.1464 114.177 29.1464H113.87C113.786 29.1464 113.724 29.1234 113.678 29.0774C113.632 29.0313 113.609 28.97 113.609 28.8856V25.571C113.609 25.4866 113.632 25.4252 113.678 25.3792C113.724 25.3331 113.786 25.3101 113.87 25.3101H114.177C114.261 25.3101 114.323 25.3331 114.369 25.3792C114.415 25.4252 114.438 25.4866 114.438 25.571V25.8088C114.561 25.64 114.714 25.5019 114.898 25.4022C115.082 25.3101 115.282 25.2564 115.504 25.2564C115.673 25.2564 115.819 25.2794 115.942 25.3331C116.08 25.3638 116.141 25.4712 116.118 25.6324" fill="#58B78E"/>
<path d="M116.747 24.5736C116.648 24.4661 116.594 24.3434 116.594 24.1899C116.594 24.0365 116.648 23.9214 116.747 23.8216C116.847 23.7219 116.978 23.6682 117.123 23.6682C117.269 23.6682 117.392 23.7219 117.492 23.8216C117.591 23.9214 117.645 24.0518 117.645 24.1899C117.645 24.328 117.591 24.4661 117.492 24.5736C117.392 24.681 117.261 24.7347 117.123 24.7347C116.985 24.7347 116.847 24.681 116.747 24.5736ZM116.978 29.1464C116.893 29.1464 116.832 29.1234 116.786 29.0774C116.74 29.0314 116.717 28.97 116.717 28.8856V25.571C116.717 25.4866 116.74 25.4252 116.786 25.3792C116.832 25.3331 116.893 25.3101 116.978 25.3101H117.285C117.369 25.3101 117.43 25.3331 117.476 25.3792C117.522 25.4252 117.545 25.4866 117.545 25.571V28.8856C117.545 28.97 117.522 29.0314 117.476 29.0774C117.43 29.1234 117.369 29.1464 117.285 29.1464H116.978Z" fill="#58B78E"/>
<path d="M121.865 25.3178C121.949 25.3178 122.011 25.3408 122.057 25.3868C122.103 25.4329 122.126 25.4943 122.126 25.5787V28.8932C122.126 28.9776 122.103 29.039 122.057 29.0851C122.011 29.1311 121.949 29.1541 121.865 29.1541H121.558C121.474 29.1541 121.412 29.1311 121.366 29.0851C121.32 29.039 121.297 28.9776 121.297 28.8932V28.5019C121.159 28.7244 120.983 28.9009 120.76 29.0237C120.545 29.1464 120.292 29.2078 120.024 29.2078C119.686 29.2078 119.387 29.1234 119.118 28.9546C118.85 28.7858 118.635 28.548 118.481 28.2487C118.328 27.9495 118.244 27.6119 118.244 27.2436C118.244 26.8753 118.32 26.5377 118.481 26.2385C118.635 25.9393 118.85 25.7014 119.118 25.5326C119.387 25.3638 119.686 25.2794 120.024 25.2794C120.3 25.2794 120.545 25.3408 120.76 25.4636C120.975 25.5863 121.159 25.7628 121.297 25.9853V25.5863C121.297 25.5019 121.32 25.4406 121.366 25.3945C121.412 25.3485 121.474 25.3255 121.558 25.3255H121.865V25.3178ZM120.745 28.3025C120.921 28.2027 121.052 28.0646 121.152 27.8958C121.251 27.7193 121.297 27.5275 121.297 27.3127V27.1746C121.297 26.9597 121.251 26.7603 121.152 26.5915C121.052 26.415 120.921 26.2769 120.745 26.1771C120.568 26.0774 120.377 26.0237 120.169 26.0237C119.962 26.0237 119.763 26.0774 119.594 26.1848C119.417 26.2922 119.287 26.438 119.187 26.6221C119.088 26.8063 119.042 27.0134 119.042 27.2436C119.042 27.4738 119.088 27.681 119.187 27.8651C119.287 28.0493 119.425 28.195 119.594 28.3025C119.763 28.4099 119.962 28.4636 120.169 28.4636C120.377 28.4636 120.576 28.4175 120.745 28.3178" fill="#58B78E"/>
<path d="M94.5044 24.9265C94.8267 24.9265 95.1106 25.0109 95.3638 25.172C95.617 25.3331 95.8165 25.5556 95.9699 25.8395C96.1157 26.1234 96.1924 26.4457 96.1924 26.8216C96.1924 27.1976 96.1157 27.5198 95.9699 27.8114C95.8241 28.103 95.6246 28.3255 95.3714 28.4943C95.1183 28.6631 94.8344 28.7475 94.5198 28.7475C94.3433 28.7475 94.1822 28.7168 94.0287 28.6631C93.8753 28.6094 93.7372 28.5326 93.6144 28.4406C93.4917 28.3485 93.3842 28.2487 93.2998 28.1337C93.2154 28.0262 93.1541 27.9111 93.1157 27.8037L93.2691 27.704V28.4099C93.2691 28.4866 93.2461 28.5556 93.1924 28.617C93.1387 28.6707 93.0697 28.7014 92.9853 28.7014C92.9085 28.7014 92.8395 28.6707 92.7858 28.617C92.7321 28.5633 92.7014 28.4943 92.7014 28.4099V23.7296C92.7014 23.6528 92.7321 23.5838 92.7858 23.5224C92.8395 23.4687 92.9085 23.438 92.9853 23.438C93.0697 23.438 93.1387 23.4687 93.1924 23.5224C93.2461 23.5761 93.2691 23.6452 93.2691 23.7296V25.9009L93.1617 25.8472C93.1924 25.7321 93.2538 25.617 93.3382 25.5019C93.4226 25.3945 93.5223 25.2948 93.6451 25.2027C93.7679 25.1183 93.8983 25.0493 94.0441 24.9955C94.1899 24.9418 94.3433 24.9188 94.5044 24.9188V24.9265ZM94.4431 25.4482C94.2052 25.4482 93.998 25.5096 93.8216 25.6247C93.6374 25.7398 93.4993 25.9086 93.3996 26.1081C93.2998 26.3076 93.2461 26.5531 93.2461 26.814C93.2461 27.0748 93.2998 27.3127 93.3996 27.5275C93.4993 27.7423 93.6451 27.9035 93.8216 28.0262C94.0057 28.149 94.2129 28.2104 94.4431 28.2104C94.6732 28.2104 94.8881 28.149 95.0645 28.0262C95.241 27.9035 95.3868 27.7347 95.4865 27.5275C95.5863 27.3127 95.64 27.0748 95.64 26.814C95.64 26.5531 95.5863 26.3152 95.4865 26.1081C95.3868 25.9009 95.241 25.7398 95.0645 25.6247C94.8881 25.5096 94.6809 25.4482 94.4431 25.4482Z" fill="#58B78E"/>
<path d="M99.7755 24.9572C99.8523 24.9572 99.9213 24.9879 99.975 25.0416C100.029 25.0953 100.059 25.1643 100.059 25.2411V28.3178C100.059 28.7168 99.9827 29.039 99.8292 29.2999C99.6758 29.5608 99.4686 29.7526 99.2078 29.883C98.9469 30.0134 98.6477 30.0748 98.3177 30.0748C98.1336 30.0748 97.9571 30.0595 97.7883 30.0211C97.6195 29.9828 97.4814 29.9367 97.374 29.8753C97.2819 29.8293 97.2205 29.7833 97.1899 29.7142C97.1592 29.6452 97.1515 29.5838 97.1745 29.5147C97.2052 29.4303 97.2589 29.3689 97.3203 29.3383C97.3817 29.3076 97.4507 29.3076 97.5198 29.3383C97.5965 29.3689 97.7039 29.415 97.8497 29.4764C97.9955 29.5377 98.1566 29.5608 98.3331 29.5608C98.5786 29.5608 98.7858 29.5147 98.9622 29.4227C99.1387 29.3306 99.2691 29.1925 99.3689 29.0083C99.461 28.8242 99.507 28.6017 99.507 28.3331V27.8344L99.5914 28.0109C99.5147 28.1567 99.4149 28.2871 99.2845 28.3945C99.1541 28.5019 99.0083 28.5863 98.8472 28.6477C98.686 28.7091 98.5019 28.7398 98.3024 28.7398C98.0339 28.7398 97.8037 28.6784 97.6195 28.5633C97.4354 28.4482 97.2896 28.2871 97.1975 28.0799C97.0978 27.8728 97.0518 27.6426 97.0518 27.3741V25.2411C97.0518 25.1643 97.0824 25.0953 97.1362 25.0416C97.1899 24.9879 97.2589 24.9572 97.3356 24.9572C97.42 24.9572 97.4891 24.9879 97.5428 25.0416C97.5965 25.0953 97.6195 25.1643 97.6195 25.2411V27.2436C97.6195 27.5659 97.6886 27.8037 97.8344 27.9649C97.9725 28.126 98.195 28.2104 98.4942 28.2104C98.686 28.2104 98.8548 28.1643 99.0083 28.0799C99.1617 27.9955 99.2845 27.8805 99.3766 27.727C99.4686 27.5812 99.5147 27.4124 99.5147 27.236V25.2334C99.5147 25.1567 99.5377 25.0876 99.5914 25.0339C99.6451 24.9802 99.7142 24.9495 99.7986 24.9495L99.7755 24.9572Z" fill="#58B78E"/>
</svg>
